<mxfile host="app.diagrams.net" modified="2022-04-29T07:02:58.548Z" agent="5.0 (Windows NT 10.0; Win64; x64) AppleWebKit/537.36 (KHTML, like Gecko) Chrome/100.0.4896.127 Safari/537.36" etag="gqoAJ1ErQfKSB-O1NgD2" version="17.5.0" type="github">
  <diagram id="hVGK91E18sHo1m6VZFf4" name="二叉树的层序遍历">
    <mxGraphModel dx="539" dy="277" grid="1" gridSize="10" guides="1" tooltips="1" connect="1" arrows="1" fold="1" page="1" pageScale="1" pageWidth="827" pageHeight="1169" math="0" shadow="0">
      <root>
        <mxCell id="0" />
        <mxCell id="1" parent="0" />
        <mxCell id="Gh315pZhHm5A6wYblPY9-4" value="" style="edgeStyle=orthogonalEdgeStyle;rounded=0;orthogonalLoop=1;jettySize=auto;html=1;" edge="1" parent="1" source="Gh315pZhHm5A6wYblPY9-1" target="Gh315pZhHm5A6wYblPY9-2">
          <mxGeometry relative="1" as="geometry" />
        </mxCell>
        <mxCell id="Gh315pZhHm5A6wYblPY9-1" value="初始化结果集res；&lt;br&gt;初始化队列queue1；&lt;br&gt;初始化队列queue2；" style="rounded=1;whiteSpace=wrap;html=1;fillColor=#d5e8d4;strokeColor=#82b366;" vertex="1" parent="1">
          <mxGeometry x="100" y="10" width="120" height="60" as="geometry" />
        </mxCell>
        <mxCell id="Gh315pZhHm5A6wYblPY9-6" value="" style="edgeStyle=orthogonalEdgeStyle;rounded=0;orthogonalLoop=1;jettySize=auto;html=1;" edge="1" parent="1" source="Gh315pZhHm5A6wYblPY9-2" target="Gh315pZhHm5A6wYblPY9-5">
          <mxGeometry relative="1" as="geometry" />
        </mxCell>
        <mxCell id="Gh315pZhHm5A6wYblPY9-2" value="将root放入到queue1中" style="rounded=1;whiteSpace=wrap;html=1;fillColor=#d5e8d4;strokeColor=#82b366;" vertex="1" parent="1">
          <mxGeometry x="90" y="100" width="140" height="40" as="geometry" />
        </mxCell>
        <mxCell id="Gh315pZhHm5A6wYblPY9-16" value="" style="edgeStyle=orthogonalEdgeStyle;rounded=0;orthogonalLoop=1;jettySize=auto;html=1;" edge="1" parent="1" source="Gh315pZhHm5A6wYblPY9-5" target="Gh315pZhHm5A6wYblPY9-15">
          <mxGeometry relative="1" as="geometry" />
        </mxCell>
        <mxCell id="Gh315pZhHm5A6wYblPY9-18" value="" style="edgeStyle=orthogonalEdgeStyle;rounded=0;orthogonalLoop=1;jettySize=auto;html=1;" edge="1" parent="1" source="Gh315pZhHm5A6wYblPY9-5" target="Gh315pZhHm5A6wYblPY9-17">
          <mxGeometry relative="1" as="geometry" />
        </mxCell>
        <mxCell id="Gh315pZhHm5A6wYblPY9-5" value="queue1不为空 ||&lt;br&gt;queue2不为空" style="rhombus;whiteSpace=wrap;html=1;fillColor=#d5e8d4;strokeColor=#82b366;rounded=1;" vertex="1" parent="1">
          <mxGeometry x="90" y="170" width="140" height="80" as="geometry" />
        </mxCell>
        <mxCell id="Gh315pZhHm5A6wYblPY9-11" style="edgeStyle=orthogonalEdgeStyle;rounded=0;orthogonalLoop=1;jettySize=auto;html=1;exitX=0;exitY=0.5;exitDx=0;exitDy=0;entryX=0;entryY=0.5;entryDx=0;entryDy=0;" edge="1" parent="1" source="Gh315pZhHm5A6wYblPY9-9" target="Gh315pZhHm5A6wYblPY9-5">
          <mxGeometry relative="1" as="geometry">
            <Array as="points">
              <mxPoint x="40" y="660" />
              <mxPoint x="40" y="210" />
            </Array>
          </mxGeometry>
        </mxCell>
        <mxCell id="Gh315pZhHm5A6wYblPY9-9" value="将node加入list" style="rounded=1;whiteSpace=wrap;html=1;fillColor=#d5e8d4;strokeColor=#82b366;" vertex="1" parent="1">
          <mxGeometry x="100" y="640" width="120" height="40" as="geometry" />
        </mxCell>
        <mxCell id="Gh315pZhHm5A6wYblPY9-21" value="" style="edgeStyle=orthogonalEdgeStyle;rounded=0;orthogonalLoop=1;jettySize=auto;html=1;" edge="1" parent="1" source="Gh315pZhHm5A6wYblPY9-14" target="Gh315pZhHm5A6wYblPY9-20">
          <mxGeometry relative="1" as="geometry" />
        </mxCell>
        <mxCell id="Gh315pZhHm5A6wYblPY9-14" value="取出queue1中元素node&lt;br&gt;并将node左右子节点放到queue2" style="rounded=1;whiteSpace=wrap;html=1;fillColor=#d5e8d4;strokeColor=#82b366;" vertex="1" parent="1">
          <mxGeometry x="60" y="390" width="200" height="40" as="geometry" />
        </mxCell>
        <mxCell id="Gh315pZhHm5A6wYblPY9-19" value="" style="edgeStyle=orthogonalEdgeStyle;rounded=0;orthogonalLoop=1;jettySize=auto;html=1;" edge="1" parent="1" source="Gh315pZhHm5A6wYblPY9-15" target="Gh315pZhHm5A6wYblPY9-14">
          <mxGeometry relative="1" as="geometry" />
        </mxCell>
        <mxCell id="Gh315pZhHm5A6wYblPY9-25" style="edgeStyle=orthogonalEdgeStyle;rounded=0;orthogonalLoop=1;jettySize=auto;html=1;exitX=1;exitY=0.5;exitDx=0;exitDy=0;entryX=1;entryY=0.5;entryDx=0;entryDy=0;" edge="1" parent="1" source="Gh315pZhHm5A6wYblPY9-15" target="Gh315pZhHm5A6wYblPY9-20">
          <mxGeometry relative="1" as="geometry">
            <Array as="points">
              <mxPoint x="300" y="321" />
              <mxPoint x="300" y="500" />
            </Array>
          </mxGeometry>
        </mxCell>
        <mxCell id="Gh315pZhHm5A6wYblPY9-15" value="queue1不为空？" style="rhombus;whiteSpace=wrap;html=1;fillColor=#d5e8d4;strokeColor=#82b366;rounded=1;" vertex="1" parent="1">
          <mxGeometry x="90" y="281" width="140" height="80" as="geometry" />
        </mxCell>
        <mxCell id="Gh315pZhHm5A6wYblPY9-17" value="直接返回" style="whiteSpace=wrap;html=1;fillColor=#d5e8d4;strokeColor=#82b366;rounded=1;" vertex="1" parent="1">
          <mxGeometry x="279" y="195" width="120" height="30" as="geometry" />
        </mxCell>
        <mxCell id="Gh315pZhHm5A6wYblPY9-23" value="" style="edgeStyle=orthogonalEdgeStyle;rounded=0;orthogonalLoop=1;jettySize=auto;html=1;" edge="1" parent="1" source="Gh315pZhHm5A6wYblPY9-20" target="Gh315pZhHm5A6wYblPY9-22">
          <mxGeometry relative="1" as="geometry" />
        </mxCell>
        <mxCell id="Gh315pZhHm5A6wYblPY9-20" value="queue2不为空？" style="rhombus;whiteSpace=wrap;html=1;fillColor=#d5e8d4;strokeColor=#82b366;rounded=1;" vertex="1" parent="1">
          <mxGeometry x="90" y="460" width="140" height="80" as="geometry" />
        </mxCell>
        <mxCell id="Gh315pZhHm5A6wYblPY9-24" value="" style="edgeStyle=orthogonalEdgeStyle;rounded=0;orthogonalLoop=1;jettySize=auto;html=1;" edge="1" parent="1" source="Gh315pZhHm5A6wYblPY9-22" target="Gh315pZhHm5A6wYblPY9-9">
          <mxGeometry relative="1" as="geometry" />
        </mxCell>
        <mxCell id="Gh315pZhHm5A6wYblPY9-22" value="取出queue2中元素node&lt;br&gt;并将node左右子节点放到queue1" style="rounded=1;whiteSpace=wrap;html=1;fillColor=#d5e8d4;strokeColor=#82b366;" vertex="1" parent="1">
          <mxGeometry x="60" y="568" width="200" height="40" as="geometry" />
        </mxCell>
      </root>
    </mxGraphModel>
  </diagram>
</mxfile>
